<?xml version="1.0" encoding="UTF-8"?>
<svg width="26px" height="28px" viewBox="0 0 26 28" version="1.1" xmlns="http://www.w3.org/2000/svg" xmlns:xlink="http://www.w3.org/1999/xlink">
    <g id="FE-Engineering-Exercise" stroke="none" stroke-width="1" fill="none" fill-rule="evenodd">
        <g id="restaurant-list-mobile" transform="translate(-16.000000, -10.000000)" fill="#00CCBC">
            <g id="nav-bar">
                <path d="M34.2514342,10.5468475 L34.2514342,10.5471937 L34.2507258,10.5465012 L41.224274,11.2598472 L39.3321217,28.771454 L35.3561933,37.4534988 L17.9704946,33.8611435 L16.224274,25.8713214 L26.1107873,23.8282429 L23.9246466,13.8261616 L30.7820161,12.4084729 L32.9692195,22.4112467 L34.2514342,10.5468475 Z M28.7577461,27.7582256 L28.7581003,27.7578793 L28.7581003,27.7571867 L28.7588088,27.7571867 C29.1172622,27.4379124 29.2298987,27.0286042 29.1130117,26.5410356 C29.0318992,26.2030619 28.6323583,25.9814399 28.3964591,25.8775545 C28.2813431,25.826997 28.1566637,25.8020645 28.029859,25.8041422 C27.6961998,25.8096828 27.0292356,25.8893282 26.8875544,26.4191435 C26.6973475,27.1328358 26.9204953,27.7232509 27.4224009,27.885312 C27.9253692,28.0480657 28.3992927,28.0774999 28.7577461,27.7582256 Z M33.7909704,28.3088179 L33.7916788,28.3088179 L33.7930956,28.3088179 C34.0541432,27.8679978 34.1781142,27.4271776 33.9301721,27.0275653 C33.6832927,26.6265679 33.2462062,26.4049458 32.7382791,26.4181046 C32.4258721,26.4260692 32.1556153,26.6861288 31.9937445,26.8855887 C31.8757949,27.0306819 31.8007039,27.2027853 31.7741387,27.3856235 C31.7245502,27.7208269 31.7210082,28.2707266 32.174388,28.4868082 C32.8470195,28.806775 33.5306312,28.7485992 33.7909704,28.3088179 Z" id="Combined-Shape"></path>
            </g>
        </g>
    </g>
</svg>
